<svg width="352" height="111" viewBox="0 0 352 111" fill="none" xmlns="http://www.w3.org/2000/svg">
<g clip-path="url(#clip0_622_2812)">
<path d="M41.62 59.3599L33.68 55.7599L33.71 52.9299C33.71 51.0199 32.03 49.3899 28.67 48.0599C26.34 47.1399 23.79 46.6899 21.01 46.6899C18.23 46.6899 15.68 47.1499 13.35 48.0599C9.99 49.4199 8.31 51.0399 8.31 52.9299V89.9699C8.31 91.8799 9.99 93.5099 13.35 94.8399C15.68 95.7599 18.23 96.2099 21.01 96.2099C23.79 96.2099 26.34 95.7499 28.67 94.8399C32.03 93.4799 33.71 91.8599 33.71 89.9699V79.9799H34.13L42.04 83.7299V89.9699C42.04 95.0499 38.89 98.8899 32.59 101.5C29.07 102.97 25.21 103.71 21.02 103.71C16.83 103.71 12.97 102.97 9.45 101.5C3.15 98.8799 0 95.0399 0 89.9599V52.9199C0 47.8399 3.15 43.9999 9.45 41.3899C12.97 39.9199 16.83 39.1799 21.02 39.1799C25.21 39.1799 29.07 39.9199 32.59 41.3899C38.89 43.9999 42.04 47.8399 42.04 52.9199V59.3599H41.62Z" fill="#81FE88"/>
<path d="M42.03 83.7199C42.03 83.7199 34.86 80.6199 33.68 77.0599L33.71 81.3799L42.03 83.7199Z" fill="#81FE88"/>
<path d="M33.56 61.0299L41.5 64.6299L41.47 67.4599C41.47 69.3699 43.15 70.9999 46.51 72.3299C48.84 73.2499 51.39 73.6999 54.17 73.6999C56.94 73.6999 59.5 73.2399 61.83 72.3299C65.19 70.9699 66.87 69.3499 66.87 67.4599V30.4299C66.87 28.5199 65.19 26.8899 61.83 25.5599C59.5 24.6399 56.95 24.1899 54.17 24.1899C51.4 24.1899 48.84 24.6499 46.51 25.5599C43.15 26.9199 41.47 28.5399 41.47 30.4299V40.4199H41.05L33.14 36.6699V30.4299C33.14 25.3499 36.29 21.5099 42.59 18.8999C46.11 17.4299 49.97 16.6899 54.16 16.6899C58.35 16.6899 62.21 17.4299 65.73 18.8999C72.03 21.5099 75.18 25.3499 75.18 30.4299V67.4699C75.18 72.5499 72.03 76.3899 65.73 78.9999C62.21 80.4699 58.35 81.2099 54.16 81.2099C49.97 81.2099 46.11 80.4699 42.59 78.9999C36.29 76.3899 33.14 72.5499 33.14 67.4699V61.0299H33.56Z" fill="#81FE88"/>
<path d="M33.15 36.6699C33.15 36.6699 40.32 39.7699 41.5 43.3299L41.47 39.0099L33.15 36.6699Z" fill="#81FE88"/>
<path d="M123.63 87.92V95.58C123.63 98.67 121.44 101.09 117.06 102.82C114.69 103.73 112.02 104.19 109.04 104.19C106.06 104.19 103.39 103.73 101.02 102.82C96.64 101.09 94.45 98.67 94.45 95.58V72.73C94.45 69.64 96.64 67.22 101.02 65.49C103.39 64.58 106.06 64.12 109.04 64.12C112.02 64.12 114.69 64.58 117.06 65.49C121.44 67.22 123.63 69.64 123.63 72.73V77.23L116.95 80.39H116.6V73.96C116.6 72.79 115.87 71.91 114.4 71.32C112.94 70.73 111.15 70.44 109.04 70.44C106.93 70.44 105.14 70.73 103.68 71.32C102.22 71.91 101.48 72.78 101.48 73.96V94.35C101.48 95.52 102.21 96.4 103.68 96.99C105.14 97.58 106.93 97.87 109.04 97.87C111.15 97.87 112.94 97.58 114.4 96.99C115.86 96.4 116.6 95.53 116.6 94.35V91.08L123.28 87.92H123.63Z" fill="#E1E1E1"/>
<path d="M133.82 95.58V72.73C133.82 69.64 136.01 67.22 140.39 65.49C142.76 64.58 145.43 64.12 148.41 64.12C151.39 64.12 154.06 64.58 156.43 65.49C160.81 67.22 163 69.64 163 72.73V95.58C163 98.67 160.81 101.09 156.43 102.82C154.06 103.73 151.39 104.19 148.41 104.19C145.43 104.19 142.76 103.73 140.39 102.82C136.01 101.09 133.82 98.67 133.82 95.58ZM140.85 94.35C140.85 95.52 141.58 96.4 143.05 96.99C144.52 97.58 146.3 97.87 148.41 97.87C150.52 97.87 152.31 97.58 153.77 96.99C155.23 96.4 155.97 95.53 155.97 94.35V73.96C155.97 72.79 155.24 71.91 153.77 71.32C152.3 70.73 150.52 70.44 148.41 70.44C146.3 70.44 144.51 70.73 143.05 71.32C141.59 71.91 140.85 72.78 140.85 73.96V94.35Z" fill="#E1E1E1"/>
<path d="M173.18 104.9V72.73C173.18 69.59 175.37 67.18 179.75 65.49C182.12 64.58 184.79 64.12 187.77 64.12C190.75 64.12 193.42 64.58 195.79 65.49C200.17 67.18 202.36 69.59 202.36 72.73V101.73L195.68 101.89H195.33V73.95C195.33 72.78 194.6 71.9 193.13 71.31C191.67 70.72 189.88 70.43 187.77 70.43C185.66 70.43 183.87 70.72 182.41 71.31C180.95 71.9 180.21 72.77 180.21 73.95V101.72L173.53 104.88H173.18V104.9Z" fill="#E1E1E1"/>
<path d="M212.55 104.9V72.73C212.55 69.59 214.74 67.18 219.12 65.49C221.49 64.58 224.16 64.12 227.14 64.12C230.12 64.12 232.79 64.58 235.16 65.49C239.54 67.18 241.73 69.59 241.73 72.73V101.73L235.05 104.89H234.7V73.95C234.7 72.78 233.97 71.9 232.5 71.31C231.04 70.72 229.25 70.43 227.14 70.43C225.03 70.43 223.24 70.72 221.78 71.31C220.32 71.9 219.58 72.77 219.58 73.95V101.72L212.9 104.88H212.55V104.9Z" fill="#E1E1E1"/>
<path d="M281.1 87.92V95.58C281.1 98.67 278.91 101.09 274.53 102.82C272.16 103.73 269.49 104.19 266.51 104.19C263.53 104.19 260.86 103.73 258.49 102.82C254.11 101.09 251.92 98.67 251.92 95.58V72.73C251.92 69.64 254.11 67.22 258.49 65.49C260.86 64.58 263.53 64.12 266.51 64.12C269.49 64.12 272.16 64.58 274.53 65.49C278.91 67.22 281.1 69.64 281.1 72.73V77.23L258.95 94.26C258.95 95.46 259.68 96.36 261.15 96.96C262.61 97.56 264.4 97.86 266.51 97.86C268.62 97.86 270.41 97.57 271.87 96.98C273.33 96.39 274.07 95.52 274.07 94.34V91.07L280.75 87.91H281.1V87.92ZM258.95 86.94L274.07 75.34V74.43C274.07 73.1 273.34 72.11 271.87 71.45C270.4 70.79 268.62 70.46 266.51 70.46C264.4 70.46 262.61 70.75 261.15 71.34C259.69 71.93 258.95 72.8 258.95 73.98V86.95V86.94Z" fill="#E1E1E1"/>
<path d="M320.46 87.92V95.58C320.46 98.67 318.27 101.09 313.89 102.82C311.52 103.73 308.85 104.19 305.87 104.19C302.89 104.19 300.22 103.73 297.85 102.82C293.47 101.09 291.28 98.67 291.28 95.58V72.73C291.28 69.64 293.47 67.22 297.85 65.49C300.22 64.58 302.89 64.12 305.87 64.12C308.85 64.12 311.52 64.58 313.89 65.49C318.27 67.22 320.46 69.64 320.46 72.73V77.23L313.78 80.39H313.43V73.96C313.43 72.79 312.7 71.91 311.23 71.32C309.76 70.73 307.98 70.44 305.87 70.44C303.76 70.44 301.97 70.73 300.51 71.32C299.05 71.91 298.31 72.78 298.31 73.96V94.35C298.31 95.52 299.04 96.4 300.51 96.99C301.98 97.58 303.76 97.87 305.87 97.87C307.98 97.87 309.77 97.58 311.23 96.99C312.69 96.4 313.43 95.53 313.43 94.35V91.08L320.11 87.92H320.46Z" fill="#E1E1E1"/>
<path d="M335.29 104.9V71.22H326.25V70.87L329.1 64.82H335.29V52.16L341.97 49H342.32V64.82H351.36V65.17L348.51 71.22H342.32V101.74L335.64 104.9H335.29Z" fill="#E1E1E1"/>
<path d="M123.62 38.92V46.58C123.62 49.67 121.43 52.09 117.05 53.82C114.68 54.73 112.01 55.19 109.03 55.19C106.05 55.19 103.38 54.73 101.01 53.82C96.63 52.09 94.44 49.67 94.44 46.58V23.73C94.44 20.64 96.63 18.22 101.01 16.49C103.38 15.58 106.05 15.12 109.03 15.12C112.01 15.12 114.68 15.58 117.05 16.49C121.43 18.22 123.62 20.64 123.62 23.73V28.23L116.94 31.39H116.59V24.96C116.59 23.79 115.86 22.91 114.39 22.32C112.93 21.73 111.14 21.44 109.03 21.44C106.92 21.44 105.13 21.73 103.67 22.32C102.21 22.91 101.47 23.78 101.47 24.96V45.35C101.47 46.52 102.2 47.4 103.67 47.99C105.13 48.58 106.92 48.87 109.03 48.87C111.14 48.87 112.93 48.58 114.39 47.99C115.85 47.4 116.59 46.53 116.59 45.35V42.08L123.27 38.92H123.62Z" fill="#888888"/>
<path d="M133.81 46.58V23.73C133.81 20.64 136 18.22 140.38 16.49C142.75 15.58 145.42 15.12 148.4 15.12C151.38 15.12 154.05 15.58 156.42 16.49C160.8 18.22 162.99 20.64 162.99 23.73V46.58C162.99 49.67 160.8 52.09 156.42 53.82C154.05 54.73 151.38 55.19 148.4 55.19C145.42 55.19 142.75 54.73 140.38 53.82C136 52.09 133.81 49.67 133.81 46.58ZM140.84 45.35C140.84 46.52 141.57 47.4 143.04 47.99C144.51 48.58 146.29 48.87 148.4 48.87C150.51 48.87 152.3 48.58 153.76 47.99C155.22 47.4 155.96 46.53 155.96 45.35V24.96C155.96 23.79 155.23 22.91 153.76 22.32C152.29 21.73 150.51 21.44 148.4 21.44C146.29 21.44 144.5 21.73 143.04 22.32C141.58 22.91 140.84 23.78 140.84 24.96V45.35Z" fill="#888888"/>
<path d="M173.17 46.58V23.73C173.17 20.59 175.36 18.18 179.74 16.49C182.11 15.58 184.78 15.12 187.76 15.12C190.55 15.12 193.07 15.52 195.32 16.32V3.16L202 0H202.35V46.58C202.35 49.72 200.16 52.13 195.78 53.82C193.41 54.73 190.74 55.19 187.76 55.19C184.78 55.19 182.11 54.73 179.74 53.82C175.36 52.09 173.17 49.67 173.17 46.58ZM180.2 45.35C180.2 46.52 180.93 47.4 182.4 47.99C183.86 48.58 185.65 48.87 187.76 48.87C189.87 48.87 191.66 48.58 193.12 47.99C194.58 47.4 195.32 46.53 195.32 45.35V24.96C195.32 23.79 194.59 22.91 193.12 22.32C191.66 21.73 189.87 21.44 187.76 21.44C185.65 21.44 183.86 21.73 182.4 22.32C180.94 22.91 180.2 23.78 180.2 24.96V45.35Z" fill="#888888"/>
<path d="M243.48 38.92V46.58C243.48 49.67 241.29 52.09 236.91 53.82C234.54 54.73 231.87 55.19 228.89 55.19C225.91 55.19 223.24 54.73 220.87 53.82C216.49 52.09 214.3 49.67 214.3 46.58V23.73C214.3 20.64 216.49 18.22 220.87 16.49C223.24 15.58 225.91 15.12 228.89 15.12C231.87 15.12 234.54 15.58 236.91 16.49C241.29 18.22 243.48 20.64 243.48 23.73V28.23L221.33 45.26C221.33 46.46 222.06 47.36 223.53 47.96C224.99 48.56 226.78 48.86 228.89 48.86C231 48.86 232.79 48.57 234.25 47.98C235.71 47.39 236.45 46.52 236.45 45.34V42.07L243.13 38.91H243.48V38.92ZM221.33 37.94L236.45 26.34V25.43C236.45 24.1 235.72 23.11 234.25 22.45C232.79 21.79 231 21.46 228.89 21.46C226.78 21.46 224.99 21.75 223.53 22.34C222.07 22.93 221.33 23.8 221.33 24.98V37.95V37.94Z" fill="#888888"/>
<path d="M212.57 100.13V100.94C212.57 105.56 202.3 105.11 202.3 100.94V100.13H195.29V102.17C195.29 105.3 197.48 107.71 201.85 109.39C205.46 110.78 209.39 110.79 213.03 109.39C217.4 107.71 219.58 105.3 219.58 102.17V100.13H212.57Z" fill="#81FE88"/>
</g>
<defs>
<clipPath id="clip0_622_2812">
<rect width="351.36" height="110.44" fill="white"/>
</clipPath>
</defs>
</svg>
